<?xml version="1.0" standalone="no"?>
<!DOCTYPE svg PUBLIC "-//W3C//DTD SVG 20010904//EN"
 "http://www.w3.org/TR/2001/REC-SVG-20010904/DTD/svg10.dtd">
<svg version="1.0" xmlns="http://www.w3.org/2000/svg"
 width="483.000000pt" height="483.000000pt" viewBox="0 0 483.000000 483.000000"
 preserveAspectRatio="xMidYMid meet">
<metadata>
Created by potrace 1.14, written by Peter Selinger 2001-2017
</metadata>
<g transform="translate(0.000000,483.000000) scale(0.100000,-0.100000)"
fill="#000000" stroke="none">
<path d="M2238 4825 c-1 -1 -38 -6 -82 -9 -43 -3 -81 -8 -85 -10 -3 -2 -28 -7
-56 -10 -168 -22 -430 -105 -644 -203 -130 -60 -331 -186 -466 -294 -75 -59
-279 -257 -335 -324 -316 -384 -496 -806 -557 -1305 -10 -83 -10 -425 0 -510
28 -243 98 -510 183 -698 50 -110 59 -128 108 -217 107 -197 234 -363 406
-535 115 -116 351 -310 376 -310 4 0 15 -6 23 -14 32 -29 216 -128 330 -177
64 -28 125 -55 136 -60 91 -40 416 -118 565 -135 89 -9 428 -11 520 -1 332 33
655 137 960 310 57 32 231 146 240 156 3 4 25 22 50 41 84 65 95 75 210 190
122 120 190 202 282 335 226 326 377 733 415 1115 15 151 9 461 -11 600 -41
277 -143 582 -273 815 -123 220 -244 378 -427 560 -222 219 -436 364 -751 505
-139 62 -438 145 -593 165 -26 3 -63 8 -82 11 -38 6 -436 15 -442 9z"/>
</g>
</svg>
